<svg xmlns="http://www.w3.org/2000/svg" width="20.47" height="19.51" viewBox="0 0 20.47 19.51">
  <defs>
    <style>
      .cls-1 {
        fill: #a0a7c3;
      }
    </style>
  </defs>
  <path id="Icon_ionic-ios-search" data-name="Icon ionic-ios-search" class="cls-1" d="M24.73,22.591l-5.693-5.476a7.533,7.533,0,0,0,1.786-4.851,7.972,7.972,0,0,0-8.161-7.771A7.976,7.976,0,0,0,4.5,12.27a7.972,7.972,0,0,0,8.161,7.771A8.384,8.384,0,0,0,17.805,18.3l5.656,5.44a.907.907,0,0,0,1.237.03A.813.813,0,0,0,24.73,22.591ZM12.661,18.37A6.53,6.53,0,0,1,8.13,16.582a5.894,5.894,0,0,1,0-8.625,6.635,6.635,0,0,1,9.062,0,5.923,5.923,0,0,1,1.876,4.312c0,1.63-1.876,4.312-1.876,4.312S14.372,18.37,12.661,18.37Z" transform="translate(-4.5 -4.493)"/>
</svg>
