<svg id="business-24px" xmlns="http://www.w3.org/2000/svg" width="22.24" height="22.24" viewBox="0 0 22.24 22.24">
  <defs>
    <style>
      .cls-1 {
        fill: none;
      }

      .cls-2 {
        fill: #4358f2;
      }
    </style>
  </defs>
  <path id="Path_3" data-name="Path 3" class="cls-1" d="M0,0H22.24V22.24H0Z"/>
  <path id="Path_4" data-name="Path 4" class="cls-2" d="M11.266,6.707V3H2V19.68H20.533V6.707Zm-5.56,11.12H3.853V15.973H5.707Zm0-3.707H3.853V12.266H5.707Zm0-3.707H3.853V8.56H5.707Zm0-3.707H3.853V4.853H5.707Zm3.707,11.12H7.56V15.973H9.413Zm0-3.707H7.56V12.266H9.413Zm0-3.707H7.56V8.56H9.413Zm0-3.707H7.56V4.853H9.413Zm9.266,11.12H11.266V15.973H13.12V14.12H11.266V12.266H13.12V10.413H11.266V8.56H18.68Zm-1.853-7.413H14.973v1.853h1.853Zm0,3.707H14.973v1.853h1.853Z" transform="translate(-0.147 -0.22)"/>
</svg>
