<svg id="perm_identity-24px" xmlns="http://www.w3.org/2000/svg" width="24" height="24" viewBox="0 0 24 24">
  <defs>
    <style>
      .cls-1 {
        fill: none;
      }

      .cls-2 {
        fill: #a0a7c3;
      }
    </style>
  </defs>
  <path id="Path_8" data-name="Path 8" class="cls-1" d="M0,0H24V24H0Z"/>
  <path id="Path_9" data-name="Path 9" class="cls-2" d="M12,6a2,2,0,1,1-2,2,2,2,0,0,1,2-2m0,9c2.7,0,5.8,1.29,6,2v1H6v-.99C6.2,16.29,9.3,15,12,15M12,4a4,4,0,1,0,4,4A4,4,0,0,0,12,4Zm0,9c-2.67,0-8,1.34-8,4v3H20V17C20,14.34,14.67,13,12,13Z"/>
</svg>
