<svg id="home-run" xmlns="http://www.w3.org/2000/svg" width="20" height="20" viewBox="0 0 21.084 21.53">
  <g id="Group_2" data-name="Group 2" transform="translate(0.001 0)">
    <g id="Group_1" data-name="Group 1">
      <path id="Path_7" data-name="Path 7" d="M20.729,22.241,11.27,12.98a1.022,1.022,0,0,0-1.456,0L.354,22.241a1.214,1.214,0,0,0-.28,1.278,1.079,1.079,0,0,0,1.008.742H2.593v9.278a.644.644,0,0,0,.62.666H8.4a.644.644,0,0,0,.62-.666V27.905h3.047v5.633a.644.644,0,0,0,.62.666H17.87a.644.644,0,0,0,.62-.666V24.261H20a1.079,1.079,0,0,0,1.008-.742A1.214,1.214,0,0,0,20.729,22.241Z" transform="translate(0 -12.675)" fill="#a0a7c3"/>
    </g>
  </g>
</svg>
